<?xml version="1.0" encoding="UTF-8"?>
<svg version="1.1" xmlns="http://www.w3.org/2000/svg" width="180" height="180">
<path d="M0 0 C59.4 0 118.8 0 180 0 C180 59.4 180 118.8 180 180 C120.6 180 61.2 180 0 180 C0 120.6 0 61.2 0 0 Z " fill="#FDFDFE" transform="translate(0,0)"/>
<path d="M0 0 C3.63 0 7.26 0 11 0 C11.37125 1.155 11.7425 2.31 12.125 3.5 C13.60621536 7.964706 15.26196349 12.35563881 16.9375 16.75 C24 35.37350543 24 35.37350543 24 41 C21.03 41 18.06 41 15 41 C11.57142857 31.42857143 11.57142857 31.42857143 12 27 C11.38511719 27.2165625 10.77023438 27.433125 10.13671875 27.65625 C9.32847656 27.9346875 8.52023438 28.213125 7.6875 28.5 C6.88699219 28.7784375 6.08648437 29.056875 5.26171875 29.34375 C3 30 3 30 0 30 C0 20.1 0 10.2 0 0 Z " fill="#073668" transform="translate(30,61)"/>
<path d="M0 0 C2.262728 1.44836454 3.78324894 2.74227914 4.9921875 5.16015625 C5.56757375 12.17986856 5.56757375 12.17986856 3.3046875 16.03515625 C-0.78229323 19.79076017 -4.43702036 20.61489016 -10.0078125 20.48828125 C-13.31519925 19.94566311 -15.47633935 18.25942666 -18.0078125 16.16015625 C-19.8861186 12.40354405 -19.64860463 8.24200212 -19.0078125 4.16015625 C-14.49402243 -1.93956006 -6.99372943 -2.92539266 0 0 Z " fill="#123D6B" transform="translate(149.0078125,82.83984375)"/>
<path d="M0 0 C3.63 0 7.26 0 11 0 C11 0.99 11 1.98 11 3 C12.918125 2.938125 12.918125 2.938125 14.875 2.875 C17.0546875 2.8046875 17.0546875 2.8046875 19 3 C19.66 3.66 20.32 4.32 21 5 C20.64052892 10.22088951 18.08536535 12.48555167 14.453125 15.94140625 C10.2672197 19.45410066 5.71967983 22.26489502 1 25 C0.36320312 25.37511719 -0.27359375 25.75023438 -0.9296875 26.13671875 C-2.5 27 -2.5 27 -5 28 C-5.99 27.67 -6.98 27.34 -8 27 C-8 26.01 -8 25.02 -8 24 C-6.87722656 23.443125 -5.75445312 22.88625 -4.59765625 22.3125 C9.15051177 15.92615201 9.15051177 15.92615201 19 5 C16.36 4.67 13.72 4.34 11 4 C11.185625 5.19625 11.37125 6.3925 11.5625 7.625 C11.5625 10.54631855 11.38092329 11.61025904 9.3125 13.7265625 C4.22815803 17.16908571 -1.3141608 19.71491096 -7 22 C-5.33416796 14.42803616 -2.67293843 7.26386322 0 0 Z " fill="#133869" transform="translate(59,61)"/>
<path d="M0 0 C2.64 0 5.28 0 8 0 C8.50833591 1.24663331 9.00631145 2.49749387 9.5 3.75 C9.7784375 4.44609375 10.056875 5.1421875 10.34375 5.859375 C11 8 11 8 11 12 C11.66 12 12.32 12 13 12 C13.99 8.04 14.98 4.08 16 0 C18.64 0 21.28 0 24 0 C24 6.6 24 13.2 24 20 C22.68 20 21.36 20 20 20 C19.505 13.565 19.505 13.565 19 7 C17.68 11.29 16.36 15.58 15 20 C13.02 20 11.04 20 9 20 C8.01 16.37 7.02 12.74 6 9 C5.67 12.96 5.34 16.92 5 21 C3.35 21 1.7 21 0 21 C0 14.07 0 7.14 0 0 Z " fill="#143F6D" transform="translate(101,82)"/>
<path d="M0 0 C1.41486568 2.71815252 2.57269671 5.41765346 3.5859375 8.30859375 C3.87525146 9.13238525 4.16456543 9.95617676 4.46264648 10.80493164 C4.76372314 11.6736792 5.0647998 12.54242676 5.375 13.4375 C5.68445557 14.32751709 5.99391113 15.21753418 6.31274414 16.13452148 C13 35.48960547 13 35.48960547 13 40 C10.03 40 7.06 40 4 40 C-1.29234999 27.00539064 -0.40404952 13.77808852 0 0 Z " fill="#09AFF0" transform="translate(41,62)"/>
<path d="M0 0 C3.34373475 0.55728913 6.03312999 1.35173889 9 3 C8.67 3.99 8.34 4.98 8 6 C7.01 6 6.02 6 5 6 C5 6.99 5 7.98 5 9 C4.34 9 3.68 9 3 9 C3 8.34 3 7.68 3 7 C1.35 7.33 -0.3 7.66 -2 8 C-2 8.99 -2 9.98 -2 11 C-3.32 10.67 -4.64 10.34 -6 10 C-5.01 10 -4.02 10 -3 10 C-3.495 7.525 -3.495 7.525 -4 5 C-7.3 5.66 -10.6 6.32 -14 7 C-11.525 7.495 -11.525 7.495 -9 8 C-9 8.66 -9 9.32 -9 10 C-9.99 10 -10.98 10 -12 10 C-12 10.99 -12 11.98 -12 13 C-12.99 13.33 -13.98 13.66 -15 14 C-15 13.01 -15 12.02 -15 11 C-18.3 10.34 -21.6 9.68 -25 9 C-25.66 10.32 -26.32 11.64 -27 13 C-29.97 13 -32.94 13 -36 13 C-35.67 12.34 -35.34 11.68 -35 11 C-36.98 11 -38.96 11 -41 11 C-44.875 4.375 -44.875 4.375 -46 1 C-42.19996023 1.33529763 -41.02514642 1.9759712 -38.1875 4.6875 C-35.38702536 7.23324406 -35.38702536 7.23324406 -33.015625 6.8828125 C-31.63261284 6.50326405 -30.26026688 6.08242272 -28.90234375 5.62109375 C-26.55377728 4.85431332 -24.45207201 4.8467455 -22 5 C-22.33 5.99 -22.66 6.98 -23 8 C-22.01 8 -21.02 8 -20 8 C-20 7.34 -20 6.68 -20 6 C-17.75256955 5.46818825 -15.50192898 4.94992874 -13.25 4.4375 C-11.37054688 4.00244141 -11.37054688 4.00244141 -9.453125 3.55859375 C-6.40526252 3.06555717 -4.82358172 2.92333121 -2 4 C-2.33 4.66 -2.66 5.32 -3 6 C-1.68 6 -0.36 6 1 6 C0.505 3.03 0.505 3.03 0 0 Z " fill="#B1B6B7" transform="translate(130,63)"/>
<path d="M0 0 C0 7.26 0 14.52 0 22 C-3.63 22 -7.26 22 -11 22 C-11.33 18.7 -11.66 15.4 -12 12 C-12.66 14.31 -13.32 16.62 -14 19 C-17.00617269 15.99382731 -16.59585316 13.17618402 -17 9 C-16.09636719 8.51789063 -15.19273438 8.03578125 -14.26171875 7.5390625 C-13.07026983 6.90112135 -11.87886594 6.2630961 -10.6875 5.625 C-10.09259766 5.30789062 -9.49769531 4.99078125 -8.88476562 4.6640625 C-0.18823242 0 -0.18823242 0 0 0 Z " fill="#0B3868" transform="translate(70,81)"/>
<path d="M0 0 C1.65 0 3.3 0 5 0 C5.06058594 1.07121094 5.12117188 2.14242187 5.18359375 3.24609375 C5.26798537 4.64324391 5.35263406 6.04037857 5.4375 7.4375 C5.47681641 8.14455078 5.51613281 8.85160156 5.55664062 9.58007812 C5.47624438 13.08690419 5.47624438 13.08690419 7 16 C9.64 16 12.28 16 15 16 C15 10.72 15 5.44 15 0 C16.98 0 18.96 0 21 0 C21.1081866 2.58445773 21.18737237 5.16437352 21.25 7.75 C21.30027344 8.84441406 21.30027344 8.84441406 21.3515625 9.9609375 C21.41629919 13.52145536 21.33062417 15.55634193 19.171875 18.453125 C15.20543256 21.27814515 11.75651909 21.3280358 7 21 C3.4613006 19.34860695 2.18929847 18.28394771 0 15 C-0.14221065 12.39754502 -0.18802932 9.90882316 -0.125 7.3125 C-0.11597656 6.61060547 -0.10695313 5.90871094 -0.09765625 5.18554688 C-0.07413704 3.45688475 -0.03826713 1.72839855 0 0 Z " fill="#18426F" transform="translate(75,82)"/>
<path d="M0 0 C0.33 0 0.66 0 1 0 C1 9.9 1 19.8 1 30 C3.97 29.01 6.94 28.02 10 27 C10.99 27 11.98 27 13 27 C12.67 28.98 12.34 30.96 12 33 C-1.83307965 36.68188737 -1.83307965 36.68188737 -8 35 C-9 34 -9 34 -9.30859375 31.625 C-9 29 -9 29 -7.28515625 27.5 C-6.55167969 27.005 -5.81820313 26.51 -5.0625 26 C-0.72103688 22.07966646 -0.40189243 18.50660469 -0.07983398 12.9375 C0.03744162 8.62233176 0.08426207 4.31609036 0 0 Z " fill="#E0DEE5" transform="translate(29,61)"/>
<path d="M0 0 C2.375 1.625 2.375 1.625 4 4 C4.60605429 7.63632575 4.47161336 9.28314769 2.4375 12.375 C-0.92058549 14.61372366 -3.04745604 14.57491549 -7 14 C-9.62541413 11.79803976 -9.9445448 10.38026421 -10.4375 7 C-10 4 -10 4 -8.375 1.625 C-5.28813568 -0.48706506 -3.6717087 -0.61195145 0 0 Z " fill="#F3F5F7" transform="translate(145,85)"/>
<path d="M0 0 C6.0546875 -0.1953125 6.0546875 -0.1953125 8 0 C8.66 0.66 9.32 1.32 10 2 C9.64052892 7.22088951 7.08536535 9.48555167 3.453125 12.94140625 C-0.7327803 16.45410066 -5.28032017 19.26489502 -10 22 C-10.63679688 22.37511719 -11.27359375 22.75023438 -11.9296875 23.13671875 C-13.5 24 -13.5 24 -16 25 C-16.99 24.67 -17.98 24.34 -19 24 C-19 23.01 -19 22.02 -19 21 C-17.87722656 20.443125 -16.75445312 19.88625 -15.59765625 19.3125 C-1.84948823 12.92615201 -1.84948823 12.92615201 8 2 C5.36 1.67 2.72 1.34 0 1 C0 0.67 0 0.34 0 0 Z " fill="#35A5FB" transform="translate(70,64)"/>
<path d="M0 0 C3.80003977 0.33529763 4.97485358 0.9759712 7.8125 3.6875 C10.61297464 6.23324406 10.61297464 6.23324406 12.984375 5.8828125 C14.36738716 5.50326405 15.73973312 5.08242272 17.09765625 4.62109375 C19.44622272 3.85431332 21.54792799 3.8467455 24 4 C23.01 5.485 23.01 5.485 22 7 C21.34 7 20.68 7 20 7 C19.67 8.65 19.34 10.3 19 12 C16.03 12 13.06 12 10 12 C10.33 11.34 10.66 10.68 11 10 C9.02 10 7.04 10 5 10 C1.125 3.375 1.125 3.375 0 0 Z " fill="#173C66" transform="translate(84,64)"/>
<path d="M0 0 C1.0625 2.375 1.0625 2.375 2 5 C1.67 5.66 1.34 6.32 1 7 C-0.32 7 -1.64 7 -3 7 C-3 6.34 -3 5.68 -3 5 C-4.21236328 5.2165625 -4.21236328 5.2165625 -5.44921875 5.4375 C-6.51785156 5.623125 -7.58648437 5.80875 -8.6875 6 C-9.74324219 6.185625 -10.79898438 6.37125 -11.88671875 6.5625 C-14.64904062 6.95068074 -17.21742043 7.08259976 -20 7 C-20 7.66 -20 8.32 -20 9 C-20.99 9 -21.98 9 -23 9 C-23 8.34 -23 7.68 -23 7 C-23.66 6.34 -24.32 5.68 -25 5 C-23.73542969 4.72285156 -22.47085938 4.44570312 -21.16796875 4.16015625 C-19.50779395 3.79435502 -17.84763871 3.42846498 -16.1875 3.0625 C-15.35412109 2.88009766 -14.52074219 2.69769531 -13.66210938 2.50976562 C-12.85966797 2.33251953 -12.05722656 2.15527344 -11.23046875 1.97265625 C-10.12288208 1.72914429 -10.12288208 1.72914429 -8.99291992 1.48071289 C-2.85424073 0 -2.85424073 0 0 0 Z " fill="#DCE4E6" transform="translate(130,62)"/>
<path d="M0 0 C2.4377963 -0.05397335 4.87439685 -0.09365616 7.3125 -0.125 C8.00279297 -0.14175781 8.69308594 -0.15851563 9.40429688 -0.17578125 C13.17135396 -0.21217794 14.78431704 -0.14378864 18 2 C17.125 5.875 17.125 5.875 16 7 C10.47058824 7.23529412 10.47058824 7.23529412 8 6 C8 4.68 8 3.36 8 2 C7.01 2 6.02 2 5 2 C5 3.65 5 5.3 5 7 C4.01 7 3.02 7 2 7 C2 5.35 2 3.7 2 2 C1.34 2 0.68 2 0 2 C0 1.34 0 0.68 0 0 Z " fill="#72C0F8" transform="translate(111,109)"/>
<path d="M0 0 C5.75 -0.125 5.75 -0.125 8 1 C3.35809908 11.36540981 -8.33147962 15.48254812 -18 20 C-18 19.01 -18 18.02 -18 17 C-16.85660156 16.43410156 -15.71320312 15.86820313 -14.53515625 15.28515625 C-13.04421862 14.54437592 -11.55333604 13.80348478 -10.0625 13.0625 C-9.30775391 12.68931641 -8.55300781 12.31613281 -7.77539062 11.93164062 C-7.05673828 11.57392578 -6.33808594 11.21621094 -5.59765625 10.84765625 C-4.60004272 10.3527771 -4.60004272 10.3527771 -3.58227539 9.84790039 C-2.00380637 9.10022992 -2.00380637 9.10022992 -1 8 C-0.76924918 6.65252916 -0.58846937 5.29622435 -0.4375 3.9375 C-0.293125 2.638125 -0.14875 1.33875 0 0 Z " fill="#E6EDF3" transform="translate(70,65)"/>
<path d="M0 0 C0 3.57811631 -0.86465142 4.26675381 -3 7 C-3.33 7.99 -3.66 8.98 -4 10 C2.27 8.68 8.54 7.36 15 6 C15 7.32 15 8.64 15 10 C1.16692035 13.68188737 1.16692035 13.68188737 -5 12 C-6 11 -6 11 -6.4375 8.8125 C-5.78538638 4.62034104 -3.11410311 2.69703573 0 0 Z " fill="#DC6086" transform="translate(26,84)"/>
<path d="M0 0 C2.31 0 4.62 0 7 0 C6.67 1.98 6.34 3.96 6 6 C6.7425 5.195625 7.485 4.39125 8.25 3.5625 C10.75304829 1.23011409 11.7180955 0.36465606 15 0 C18 4.75 18 4.75 18 7 C17.01 7 16.02 7 15 7 C15 6.34 15 5.68 15 5 C13.68 5 12.36 5 11 5 C11 5.66 11 6.32 11 7 C8.69 7 6.38 7 4 7 C3.34 5.35 2.68 3.7 2 2 C2 3.65 2 5.3 2 7 C1.34 7 0.68 7 0 7 C0 4.69 0 2.38 0 0 Z " fill="#DB6388" transform="translate(39,109)"/>
<path d="M0 0 C2.6875 -0.3125 2.6875 -0.3125 5 0 C5 0.66 5 1.32 5 2 C4.01 2 3.02 2 2 2 C3.31201173 3.56249809 3.31201173 3.56249809 5 5 C5.99 5 6.98 5 8 5 C8.33 6.65 8.66 8.3 9 10 C7.20841511 10.02696365 5.41671527 10.04637917 3.625 10.0625 C2.62726563 10.07410156 1.62953125 10.08570312 0.6015625 10.09765625 C-2 10 -2 10 -4 9 C-3.35177251 5.49957156 -2.19256847 2.8190166 0 0 Z " fill="#133D6A" transform="translate(98,106)"/>
<path d="M0 0 C0.33 0 0.66 0 1 0 C1 5.61 1 11.22 1 17 C-1.31 17.99 -3.62 18.98 -6 20 C-4.4260921 13.17973243 -2.27204442 6.61760511 0 0 Z " fill="#DB577F" transform="translate(58,63)"/>
<path d="M0 0 C0 4.95 0 9.9 0 15 C3.3 15 6.6 15 10 15 C10 15.33 10 15.66 10 16 C6.37 16 2.74 16 -1 16 C-1.33 12.7 -1.66 9.4 -2 6 C-2.66 8.31 -3.32 10.62 -4 13 C-7.00617269 9.99382731 -6.59585316 7.17618402 -7 3 C-1.125 0 -1.125 0 0 0 Z " fill="#B97998" transform="translate(60,87)"/>
<path d="M0 0 C0 1.98 0 3.96 0 6 C-3.63 6 -7.26 6 -11 6 C-11 4.68 -11 3.36 -11 2 C-7.12315913 0.80712589 -4.08378077 0 0 0 Z " fill="#103B6A" transform="translate(41,96)"/>
<path d="M0 0 C6.0546875 -0.1953125 6.0546875 -0.1953125 8 0 C8.66 0.66 9.32 1.32 10 2 C9.77346043 6.40656009 8.08413616 8.36565027 4.9375 11.3125 C4.20402344 12.00988281 3.47054687 12.70726563 2.71484375 13.42578125 C2.14894531 13.94527344 1.58304687 14.46476562 1 15 C0.34 14.34 -0.32 13.68 -1 13 C1.97 9.37 4.94 5.74 8 2 C5.36 1.67 2.72 1.34 0 1 C0 0.67 0 0.34 0 0 Z " fill="#38A6FB" transform="translate(70,64)"/>
<path d="M0 0 C0.33 2.31 0.66 4.62 1 7 C-0.65 6.67 -2.3 6.34 -4 6 C-4.33 5.01 -4.66 4.02 -5 3 C-8.3 3 -11.6 3 -15 3 C-15 2.67 -15 2.34 -15 2 C-13.43883181 1.66048381 -11.87598662 1.32867456 -10.3125 1 C-9.44238281 0.814375 -8.57226562 0.62875 -7.67578125 0.4375 C-5.06287036 0.01027953 -2.64186962 -0.07616201 0 0 Z " fill="#D1D7D9" transform="translate(126,68)"/>
<path d="M0 0 C0.70640625 0.05220703 1.4128125 0.10441406 2.140625 0.15820312 C3.88579987 0.28791207 5.63045725 0.42454954 7.375 0.5625 C7.375 1.2225 7.375 1.8825 7.375 2.5625 C6.385 2.5625 5.395 2.5625 4.375 2.5625 C4.375 3.5525 4.375 4.5425 4.375 5.5625 C3.385 5.8925 2.395 6.2225 1.375 6.5625 C1.375 5.5725 1.375 4.5825 1.375 3.5625 C-1.925 2.9025 -5.225 2.2425 -8.625 1.5625 C-8.955 2.2225 -9.285 2.8825 -9.625 3.5625 C-9.625 2.5725 -9.625 1.5825 -9.625 0.5625 C-6.5270403 -0.98647985 -3.36283448 -0.26989539 0 0 Z " fill="#878F95" transform="translate(113.625,70.4375)"/>
<path d="M0 0 C2.70931419 0.15481795 4.46584039 0.48172081 6.4453125 2.40234375 C7.67679642 3.89771708 8.8429837 5.4462924 10 7 C8.35 7.66 6.7 8.32 5 9 C4.16094435 7.87926138 3.32892169 6.75325453 2.5 5.625 C2.0359375 4.99851562 1.571875 4.37203125 1.09375 3.7265625 C0 2 0 2 0 0 Z " fill="#894D71" transform="translate(84,64)"/>
<path d="M0 0 C1.98 0 3.96 0 6 0 C7.04449911 3.13349732 6.93423645 3.98968256 6 7 C5.01 6.67 4.02 6.34 3 6 C2.3125 3.9375 2.3125 3.9375 2 2 C2 3.65 2 5.3 2 7 C1.34 7 0.68 7 0 7 C0 4.69 0 2.38 0 0 Z " fill="#45ABF7" transform="translate(140,109)"/>
<path d="M0 0 C0.99 0 1.98 0 3 0 C3 1.65 3 3.3 3 5 C3.99 5 4.98 5 6 5 C6 3.68 6 2.36 6 1 C6.66 1 7.32 1 8 1 C8.042721 2.66611905 8.04063832 4.33382885 8 6 C7 7 7 7 4 7.125 C1 7 1 7 0 6 C-0.04080783 4.00041636 -0.04254356 1.99954746 0 0 Z " fill="#42ABF9" transform="translate(130,109)"/>
<path d="M0 0 C3.34373475 0.55728913 6.03312999 1.35173889 9 3 C8.67 3.99 8.34 4.98 8 6 C5.69 6 3.38 6 1 6 C0.67 4.02 0.34 2.04 0 0 Z " fill="#BBC0C2" transform="translate(130,63)"/>
<path d="M0 0 C0.99 0.33 1.98 0.66 3 1 C3 1.99 3 2.98 3 4 C3.66 4 4.32 4 5 4 C5.66 2.68 6.32 1.36 7 0 C7.66 0 8.32 0 9 0 C7.125 4.75 7.125 4.75 6 7 C4.68 7 3.36 7 2 7 C0.5393715 4.35261084 0 3.10551666 0 0 Z " fill="#DA5E85" transform="translate(58,109)"/>
<path d="M0 0 C2.31 0 4.62 0 7 0 C6.67 1.32 6.34 2.64 6 4 C4.68 4 3.36 4 2 4 C2 4.66 2 5.32 2 6 C3.32 6.33 4.64 6.66 6 7 C4.02 7 2.04 7 0 7 C0 4.69 0 2.38 0 0 Z " fill="#DB6286" transform="translate(68,109)"/>
<path d="M0 0 C0.33 1.65 0.66 3.3 1 5 C-1.31 5 -3.62 5 -6 5 C-6.66 3.68 -7.32 2.36 -8 1 C-5.23735711 0.40267181 -2.83967231 0 0 0 Z " fill="#3C5F83" transform="translate(106,111)"/>
<path d="M0 0 C2.64 0 5.28 0 8 0 C8 0.66 8 1.32 8 2 C7.01 2 6.02 2 5 2 C5 3.65 5 5.3 5 7 C4.01 7 3.02 7 2 7 C2 5.35 2 3.7 2 2 C1.34 2 0.68 2 0 2 C0 1.34 0 0.68 0 0 Z " fill="#DC6D8F" transform="translate(30,109)"/>
<path d="M0 0 C3.94727588 -0.17942163 6.5980513 -0.09350689 10 2 C9.67 2.99 9.34 3.98 9 5 C9 4.34 9 3.68 9 3 C5.37 3.33 1.74 3.66 -2 4 C-1.34 2.68 -0.68 1.36 0 0 Z " fill="#C8CED0" transform="translate(105,72)"/>
<path d="M0 0 C-0.99 1.485 -0.99 1.485 -2 3 C-3.32 3 -4.64 3 -6 3 C-6 3.66 -6 4.32 -6 5 C-6.99 5 -7.98 5 -9 5 C-9 4.34 -9 3.68 -9 3 C-9.66 2.34 -10.32 1.68 -11 1 C-9.5437328 0.63743142 -8.08488815 0.28520207 -6.625 -0.0625 C-5.40683594 -0.35833984 -5.40683594 -0.35833984 -4.1640625 -0.66015625 C-2 -1 -2 -1 0 0 Z " fill="#D2DBDE" transform="translate(116,66)"/>
<path d="M0 0 C1.65 0 3.3 0 5 0 C5 0.66 5 1.32 5 2 C4.01 2.495 4.01 2.495 3 3 C3.33 4.32 3.66 5.64 4 7 C2.35 7 0.7 7 -1 7 C-0.01 6.67 0.98 6.34 2 6 C2 5.34 2 4.68 2 4 C1.01 3.67 0.02 3.34 -1 3 C-0.67 2.01 -0.34 1.02 0 0 Z " fill="#4FB0F8" transform="translate(149,109)"/>
<path d="M0 0 C0.99 0 1.98 0 3 0 C3 1.98 3 3.96 3 6 C4.32 6.33 5.64 6.66 7 7 C4.69 7 2.38 7 0 7 C0 4.69 0 2.38 0 0 Z " fill="#DC688B" transform="translate(76,109)"/>
<path d="M0 0 C1.32 0 2.64 0 4 0 C4 2.33333333 4 4.66666667 4 7 C2.35 7 0.7 7 -1 7 C-0.01 6.67 0.98 6.34 2 6 C2 5.34 2 4.68 2 4 C1.01 3.67 0.02 3.34 -1 3 C-0.67 2.01 -0.34 1.02 0 0 Z " fill="#DB6187" transform="translate(85,109)"/>
<path d="M0 0 C0.66 0 1.32 0 2 0 C2 0.66 2 1.32 2 2 C3.32 1.67 4.64 1.34 6 1 C6 1.66 6 2.32 6 3 C5.01 3 4.02 3 3 3 C3.33 3.99 3.66 4.98 4 6 C1.03 5.505 1.03 5.505 -2 5 C-1.34 3.35 -0.68 1.7 0 0 Z " fill="#70BFF6" transform="translate(49,64)"/>
<path d="M0 0 C6.0546875 -0.1953125 6.0546875 -0.1953125 8 0 C8.66 0.66 9.32 1.32 10 2 C9.625 4.125 9.625 4.125 9 6 C7.68 6.33 6.36 6.66 5 7 C5.99 5.35 6.98 3.7 8 2 C5.36 1.67 2.72 1.34 0 1 C0 0.67 0 0.34 0 0 Z " fill="#51B0F6" transform="translate(70,64)"/>
<path d="M0 0 C0 1.65 0 3.3 0 5 C-1.65 4.67 -3.3 4.34 -5 4 C-5 3.01 -5 2.02 -5 1 C-3 0 -3 0 0 0 Z " fill="#E5E6E7" transform="translate(127,70)"/>
<path d="M0 0 C0.99 0 1.98 0 3 0 C3 1.98 3 3.96 3 6 C2.01 6 1.02 6 0 6 C0 4.02 0 2.04 0 0 Z " fill="#3DA8F7" transform="translate(113,110)"/>
<path d="M0 0 C2 1.375 2 1.375 4 3 C4 3.66 4 4.32 4 5 C2.35 5.33 0.7 5.66 -1 6 C-0.67 4.02 -0.34 2.04 0 0 Z " fill="#CDE9F9" transform="translate(147,110)"/>
<path d="M0 0 C0.66 0 1.32 0 2 0 C0.92598892 2.91517292 0.22189824 4.77810176 -2 7 C-2.66 6.01 -3.32 5.02 -4 4 C-3.34 4 -2.68 4 -2 4 C-1.34 2.68 -0.68 1.36 0 0 Z " fill="#DD688C" transform="translate(65,109)"/>
</svg>
